HIERARCHY
ROOT Hips
{
     OFFSET 1.88212 96.90440 -13.34250
     CHANNELS 6 Xposition Yposition Zposition Zrotation Xrotation Yrotation
     JOINT Spine
     {
          OFFSET 0.00000 11.89050 0.00000
          CHANNELS 3 Zrotation Xrotation Yrotation
          JOINT Spine1
          {
               OFFSET -0.00000 25.65740 0.12766
               CHANNELS 3 Zrotation Xrotation Yrotation
               JOINT HEad
               {
                    OFFSET 0.00000 8.73416 0.01134
                    CHANNELS 3 Zrotation Xrotation Yrotation
                    End Site
                    {
                         OFFSET -0.29000 12.77420 2.51395
                    }
               }
               JOINT LeftShoulder1
               {
                    OFFSET 8.99000 -0.36225 -0.22000
                    CHANNELS 3 Zrotation Xrotation Yrotation
                    JOINT LeftArm
                    {
                         OFFSET 10.28270 -0.00338 0.32212
                         CHANNELS 3 Zrotation Xrotation Yrotation
                         JOINT LeftForeArm
                         {
                              OFFSET 32.76690 0.09914 -1.42434
                              CHANNELS 3 Zrotation Xrotation Yrotation
                              JOINT LeftHand
                              {
                                   OFFSET 27.56430 0.08536 1.02216
                                   CHANNELS 3 Zrotation Xrotation Yrotation
                                   End Site
                                   {
                                        OFFSET 16.74430 -0.60000 1.50291
                                   }
                              }
                         }
                    }
               }
               JOINT RightShoulder
               {
                    OFFSET -8.99000 -0.36225 -0.22000
                    CHANNELS 3 Zrotation Xrotation Yrotation
                    JOINT RightArm
                    {
                         OFFSET -10.28270 -0.00338 0.32212
                         CHANNELS 3 Zrotation Xrotation Yrotation
                         JOINT RightForeArm
                         {
                              OFFSET -32.89710 0.09914 -1.42434
                              CHANNELS 3 Zrotation Xrotation Yrotation
                              JOINT RightHand
                              {
                                   OFFSET -27.49210 0.08536 1.02216
                                   CHANNELS 3 Zrotation Xrotation Yrotation
                                   End Site
                                   {
                                        OFFSET -16.63120 -0.60000 1.50291
                                   }
                              }
                         }
                    }
               }
          }
     }
     JOINT LeftUpLeg
     {
          OFFSET 8.94580 -8.66707 0.10165
          CHANNELS 3 Zrotation Xrotation Yrotation
          JOINT LeftLeg
          {
               OFFSET 0.00000 -44.42270 1.37270
               CHANNELS 3 Zrotation Xrotation Yrotation
               JOINT LeftFoot
               {
                    OFFSET -0.25355 -42.09240 -1.46059
                    CHANNELS 3 Zrotation Xrotation Yrotation
                    JOINT LeftToes
                    {
                         OFFSET -0.04000 -4.41509 8.49910
                         CHANNELS 3 Zrotation Xrotation Yrotation
                         End Site
                         {
                              OFFSET 0.08000 -0.04745 9.77979
                         }
                    }
               }
          }
     }
     JOINT RightUpLeg
     {
          OFFSET -8.94580 -8.66707 0.10165
          CHANNELS 3 Zrotation Xrotation Yrotation
          JOINT RightLeg
          {
               OFFSET 0.00000 -44.42270 1.37270
               CHANNELS 3 Zrotation Xrotation Yrotation
               JOINT RightFoot
               {
                    OFFSET 0.25355 -42.09240 -1.46059
                    CHANNELS 3 Zrotation Xrotation Yrotation
                    JOINT RightToes
                    {
                         OFFSET 0.04000 -4.41509 8.49910
                         CHANNELS 3 Zrotation Xrotation Yrotation
                         End Site
                         {
                              OFFSET -0.08000 -0.13745 9.77979
                         }
                    }
               }
          }
     }
}
MOTION
Frames: 18
Frame Time: 0.01667
43.68319 85.23364 -120.79306 0.86507 -9.46138 -28.91532 -5.55298 26.96903 3.90056 -0.04790 0.10875 0.01434 -18.32310 9.56420 17.59577 -19.41688 34.44171 8.15188 -110.11918 -62.68698 -86.61868 -50.25517 54.18231 -84.42267 2.74326 12.16752 -1.19798 -17.88235 37.48989 14.19267 86.17670 -25.01311 86.30369 34.60955 47.35318 89.50419 -3.87452 -1.07035 -4.88196 12.89505 -19.05423 16.98663 20.14559 27.06949 -19.46466 -30.01802 -0.00863 -0.01305 5.56501 -1.39229 3.48503 -19.14587 -21.41405 -12.97100 -14.81607 42.83622 32.85049 8.45846 -0.01916 0.02056 -4.87676 -22.18445 -2.91356 
43.90107 82.95428 -121.23186 0.51189 -9.43662 -29.24479 -7.74976 31.13325 5.02607 -0.04748 0.09928 0.01630 -19.02859 8.09052 18.08172 -19.10656 31.85768 7.48926 -105.14799 -61.80032 -77.98878 -49.90819 53.94243 -84.61961 5.75357 10.37790 -2.16223 -16.16796 34.74218 13.83415 78.13535 -24.93964 76.18254 28.85079 45.26609 99.14029 -5.00858 12.66416 0.30352 14.02237 -22.05140 17.08371 24.17285 32.50671 -18.72939 -29.81169 -0.01216 -0.01379 7.45985 -19.71520 6.52664 -19.37838 -25.12056 -12.53461 -19.45005 49.16707 36.62405 10.14629 -0.01354 0.05698 -6.63643 -26.57512 -2.72495 
44.21112 79.97992 -121.82986 0.38413 -8.37341 -27.38979 -9.05559 35.20697 4.30456 -0.04485 0.08683 0.01548 -20.25409 6.31573 18.89509 -18.25494 28.62968 6.60613 -102.25168 -60.66883 -73.36040 -48.49979 53.97194 -85.53984 2.12802 17.84494 -6.59569 -13.52766 31.41858 13.03886 72.99279 -24.03479 70.39460 25.44815 43.27262 104.34614 -4.44181 5.96331 -0.09442 14.93211 -27.88742 15.49437 27.96885 38.61239 -19.30145 -29.10700 -0.02417 0.00336 3.26384 -14.48907 -0.02501 -20.20220 -30.37701 -13.80208 -27.78432 57.25923 43.39334 12.52089 -0.00233 0.10588 -9.14489 -32.63537 -2.43231 
44.65750 76.07647 -122.63831 0.70118 -6.78492 -23.61543 -9.98822 39.22526 2.41900 -0.04992 0.06430 0.00228 -21.66604 4.45705 19.66468 -16.66659 25.17628 5.38060 -100.30164 -59.70459 -71.11804 -46.74199 53.99331 -86.86996 4.38902 14.94464 -6.61537 -10.01418 27.90838 10.83763 70.01014 -22.19206 67.14742 22.49291 43.24153 110.87263 -3.25269 14.45762 7.46669 14.76051 -36.14500 12.26766 32.51921 45.44351 -21.80683 -28.33310 -0.02724 0.00386 -0.24707 -18.61620 -2.03469 -22.91787 -36.53842 -16.78376 -38.81025 65.63216 52.95221 14.78004 0.01420 0.08645 -12.11433 -37.92469 -2.61339 
45.13328 71.90199 -123.60803 0.94367 -5.52114 -20.20362 -11.92861 43.68967 2.15331 -0.04453 0.05880 0.00313 -22.01337 2.32797 19.44039 -14.36894 21.61947 3.97223 -98.99952 -58.75470 -70.25400 -44.86687 54.17962 -88.58014 2.79752 18.27847 -8.70843 -5.55023 24.26985 8.89715 67.94247 -20.98582 65.55820 20.55941 43.05722 114.23664 -5.07000 9.03856 -1.03580 14.47810 -45.22076 9.60807 39.46801 52.81142 -27.80565 -27.81914 -0.01513 0.00309 -3.16345 -18.49625 -6.07751 -26.55352 -42.95263 -19.02429 -58.49469 73.51527 71.32676 17.22691 0.01770 0.08440 -15.18864 -42.62734 -3.16965 
45.57552 67.54698 -124.70440 1.16593 -4.53450 -17.10231 -15.03537 48.35876 3.60501 -0.04099 0.05405 0.00290 -21.49994 0.07711 18.47725 -11.45642 17.94445 2.52571 -98.00135 -57.89145 -70.06594 -43.15506 54.33343 -90.55660 4.47180 15.74786 -8.08569 -0.73221 20.48895 7.64191 66.66502 -20.31858 64.76339 18.85868 43.34517 116.10738 -4.19614 13.16253 5.04942 14.36749 -54.70272 7.80259 49.74718 59.82384 -38.40771 -27.12972 -0.01436 0.00620 -5.69261 -20.10055 -8.26064 -31.14166 -49.09598 -20.66916 -96.35313 78.12663 108.23392 20.02682 0.02514 0.08232 -18.31552 -46.69003 -3.78881 
45.91776 62.83320 -125.80191 1.40653 -3.78426 -14.23943 -19.59638 52.96019 7.08194 -0.04310 0.04860 0.00987 -20.30004 -2.19501 16.87690 -18.75811 18.64775 8.30988 -94.13807 -52.08120 -78.85537 -41.77484 54.13065 -92.21385 4.00412 16.94838 -8.38295 3.81036 16.62008 6.96883 66.20978 -20.10545 64.68138 21.32397 48.18401 115.73739 1.88666 -2.75066 -2.37957 15.24850 -64.06264 7.63895 64.14577 65.30688 -54.39057 -25.99020 -0.01761 0.01014 -8.14866 -20.66944 -10.77582 -36.50637 -54.58024 -21.74690 -139.32295 76.44685 150.70102 23.25289 0.03303 0.07684 -21.88910 -49.90978 -5.68252 
46.07822 58.14171 -126.81560 1.66939 -3.24157 -11.60954 -26.06785 57.12758 12.99163 -0.04508 0.04111 0.00849 -18.51336 -4.42083 14.81642 -13.48777 14.70111 5.59608 -93.57644 -51.42413 -78.25112 -40.56076 53.83312 -94.13100 5.06084 15.25535 -7.39995 8.40416 12.73597 6.27743 66.03707 -19.94959 65.00636 23.02159 50.72139 115.23280 -7.80832 14.61776 0.68316 19.17593 -72.56049 11.09099 81.00888 68.41277 -73.88863 -24.25684 -0.01966 0.01125 -10.15422 -21.36081 -12.18802 -42.08498 -59.10052 -21.93781 -163.08701 71.23872 174.44469 26.90473 0.04034 0.06934 -25.69824 -52.83323 -7.43398 
46.05426 53.62162 -127.62740 1.95881 -2.88875 -9.20021 -34.82477 60.39157 21.62823 -0.04694 0.02512 0.00217 -16.20445 -6.52680 12.46165 -8.26889 10.79718 3.35784 -92.87818 -50.76976 -77.57999 -39.52646 53.59438 -96.42550 4.60006 15.71644 -6.79874 13.29711 8.98107 5.15793 63.82599 -16.90714 67.56185 23.80871 48.51711 113.55864 -3.04226 5.70438 -2.36571 26.86349 -79.66328 18.77481 96.97775 69.37930 -92.28451 -22.14410 -0.01558 0.00561 -11.98039 -21.23819 -13.12169 -47.02543 -62.43901 -20.59170 -175.32698 65.73779 187.16861 31.07739 0.05113 0.06668 -30.01241 -55.44734 -9.88360 
45.99351 49.33719 -128.09915 2.30620 -2.72004 -6.96762 -45.47461 62.03382 32.68307 -0.05495 -0.01220 0.00555 -13.67891 -9.62761 9.71189 -3.09359 7.14945 1.51223 -91.93133 -49.88904 -76.79626 -38.70310 53.23741 -98.73357 5.53566 14.66740 -5.70813 10.13563 7.16821 12.86852 69.85087 -23.83264 67.68603 23.42295 47.57669 114.76900 -8.22908 14.56357 -0.20361 49.65973 -84.98054 41.93398 109.53477 69.15910 -107.08009 -19.80393 -0.01119 -0.00295 -13.76461 -21.17567 -13.28700 -49.97182 -64.51351 -16.75015 -179.87920 60.98051 191.55348 37.22034 0.15684 0.07298 -63.31315 -56.67916 -41.37671 
45.87762 45.69116 -128.30096 2.72904 -2.73084 -4.89941 -54.12531 62.39615 41.95135 0.04122 -0.04845 -0.03435 -12.10784 -13.18870 7.11631 0.79557 4.33766 0.27106 -91.11826 -48.93070 -76.17664 -38.00222 52.84307 -100.93718 4.95181 14.73173 -4.59852 14.35272 4.45281 10.38708 68.50346 -22.02214 67.92486 23.01378 47.18740 116.68417 10.14336 0.72947 5.59376 102.41601 -85.74076 95.29886 116.49032 69.08755 -116.79917 -17.21426 -0.00894 -0.01024 -15.50156 -20.53445 -13.29054 -50.34302 -65.19666 -10.38138 -184.00771 57.48381 195.67775 43.03549 0.15086 0.03770 -51.43926 -60.35271 -26.83389 
45.77092 42.75953 -128.22818 3.20887 -2.89424 -2.98172 -60.25720 62.02989 48.82124 0.03981 -0.04137 -0.03573 -11.11659 -17.10550 4.43583 3.76798 2.30369 -0.79738 -90.40006 -48.00948 -75.80991 -37.41545 52.35503 -102.81792 5.35565 14.00064 -3.49178 17.41511 2.51157 8.33691 67.82806 -21.09541 68.21056 23.08753 46.86312 118.39352 6.16086 7.60874 -0.02558 122.85295 -83.81065 116.46261 120.18190 69.78630 -123.36538 -14.38863 -0.00831 -0.01331 -17.00034 -20.02184 -12.93201 -48.93277 -64.48077 -2.82161 -187.08080 55.06682 198.76727 48.69492 0.14549 0.02854 -60.36843 -61.89079 -33.96177 
45.90607 40.64341 -127.81061 3.74581 -3.18969 -1.18632 -63.92516 61.31562 53.27739 0.03908 -0.04107 -0.03773 -10.58284 -21.22663 1.64031 5.59370 0.79912 -1.48597 -94.03529 -45.25533 -81.09812 -34.33265 49.65564 -105.38966 1.73204 10.63480 0.30383 11.87796 -3.98986 13.52185 73.59618 -24.97492 65.21709 21.99715 48.92802 122.03797 2.82348 3.56458 -0.71227 123.55379 -82.08153 118.03817 127.72942 71.49894 -133.28569 -9.90004 -0.03362 0.02188 -18.84518 -20.65878 -13.39582 -47.12875 -62.47489 4.27342 -189.10272 53.63095 200.73918 54.17844 0.14391 0.01975 -58.96219 -64.03741 -29.70114 
46.21910 39.29971 -127.20126 4.36242 -3.63521 0.47252 -65.68331 60.50435 55.80431 0.03630 -0.03172 -0.03148 -10.32447 -25.59104 -1.24831 6.87164 -0.10094 -2.16410 -95.72644 -43.17438 -83.76302 -32.38505 48.38071 -107.05851 0.44673 8.44643 2.78083 14.89305 -3.81803 11.19063 72.84930 -23.24676 71.58871 24.68837 49.29422 119.71378 -2.16189 8.04148 -6.16847 117.72192 -80.81019 113.21061 139.07243 72.89677 -146.67143 -4.62016 -0.03353 0.07530 -20.59614 -21.84158 -14.06389 -45.68292 -59.37570 10.01947 -190.36089 53.14709 201.70627 59.35198 0.13429 0.00726 -63.26419 -65.91328 -31.35238 
46.77510 38.62782 -126.40957 5.04258 -4.21050 1.98206 -65.99920 59.67883 56.81746 0.03009 -0.02178 -0.02747 -10.12867 -30.21278 -4.18224 7.78601 -0.44185 -2.93308 -96.46775 -41.69551 -85.16756 -31.21692 47.78450 -108.00501 -0.24879 7.35128 3.68559 17.35686 -3.43697 9.33753 72.07343 -22.42668 75.10554 26.12180 49.67342 119.17785 -2.86853 6.33084 -5.58100 109.25581 -79.99162 105.86190 147.75377 73.94064 -157.09068 -0.12693 -0.00817 0.04711 -22.18166 -22.75982 -14.42525 -44.85491 -55.47732 14.09983 -191.05818 53.55127 201.74895 64.14734 0.11644 -0.00546 -64.68459 -67.72767 -29.58334 
47.84348 38.77964 -125.42607 5.72653 -4.89242 3.31010 -63.00344 58.35470 54.44441 0.04599 -0.11337 -0.04966 -9.64594 -33.75666 -6.41588 4.13869 -9.87622 -3.84804 -87.03479 -39.47525 -76.56606 -32.89578 47.63427 -103.03066 7.82962 15.63727 -13.58619 19.52005 -1.64978 7.72783 73.49383 -22.65128 81.18835 31.75794 50.56531 113.14061 -6.37129 21.67757 7.78314 98.75520 -79.72276 96.65715 155.76782 74.77689 -166.11078 4.08869 -0.00641 0.03793 -23.68281 -23.29421 -14.71144 -44.75754 -51.02383 16.50974 -192.81180 55.95134 201.17253 68.14990 0.06991 -0.07536 -63.91973 -67.94168 -25.51843 
49.20429 39.33368 -124.42008 6.36075 -5.63623 4.45346 -57.56471 56.54950 49.39889 0.05576 -0.09689 -0.05420 -8.60597 -36.55814 -7.88556 3.87990 -5.96942 -3.71838 -92.45602 -36.14936 -86.01595 -35.98219 47.77502 -95.10590 1.64328 10.42890 -4.90867 20.90555 1.29373 6.54539 74.31702 -22.96004 84.35638 34.68634 51.42273 110.22256 -4.48904 11.67216 -4.63187 85.87897 -79.80334 85.22197 163.57426 75.35891 -174.11668 8.12937 -0.00418 0.04133 -25.21814 -24.24454 -15.15000 -45.33023 -46.40311 17.37752 -195.01630 59.63697 200.33011 71.50045 0.02068 -0.09174 -61.61790 -67.00468 -19.62147 
50.91027 40.24813 -123.42723 6.89668 -6.39860 5.39027 -50.64733 54.22886 42.53865 0.06462 -0.06541 -0.05584 -6.80656 -38.67500 -8.48926 3.15649 -1.27730 -3.30985 -95.51817 -34.30969 -91.07428 -37.86132 48.27649 -91.30121 5.85257 12.93830 -9.01891 21.40405 5.18262 5.81257 74.80504 -23.36838 85.86835 28.50916 50.95532 116.52689 -8.94965 27.69531 15.47461 70.25324 -79.88462 71.16685 170.78316 75.70788 -180.75157 11.97554 -0.00048 0.04794 -26.76595 -25.39441 -15.68573 -46.41799 -41.86616 16.94845 -197.21252 64.25943 199.62315 74.37120 -0.01122 -0.08208 -59.83274 -65.10936 -14.59229 
